<?xml version="1.0" encoding="UTF-8" standalone="no"?>
<!-- Created with Inkscape (http://www.inkscape.org/) -->

<svg
   width="1000"
   height="1000"
   viewBox="0 0 264.58333 264.58333"
   version="1.1"
   id="svg1"
   inkscape:version="1.4.4 (1:1.4.4+202605061436+dcaf3e7d9e)"
   sodipodi:docname="elements.svg"
   xml:space="preserve"
   xmlns:inkscape="http://www.inkscape.org/namespaces/inkscape"
   xmlns:sodipodi="http://sodipodi.sourceforge.net/DTD/sodipodi-0.dtd"
   xmlns="http://www.w3.org/2000/svg"
   xmlns:svg="http://www.w3.org/2000/svg"><sodipodi:namedview
     id="namedview1"
     pagecolor="#ffffff"
     bordercolor="#000000"
     borderopacity="0.25"
     inkscape:showpageshadow="2"
     inkscape:pageopacity="0.0"
     inkscape:pagecheckerboard="0"
     inkscape:deskcolor="#d1d1d1"
     inkscape:document-units="mm"
     inkscape:zoom="4.0432517"
     inkscape:cx="16.694484"
     inkscape:cy="6.4304678"
     inkscape:window-width="1920"
     inkscape:window-height="1013"
     inkscape:window-x="0"
     inkscape:window-y="22"
     inkscape:window-maximized="1"
     inkscape:current-layer="layer4"
     showgrid="false"
     showguides="false"><inkscape:grid
       id="grid8"
       units="mm"
       originx="0"
       originy="0"
       spacingx="0.99999999"
       spacingy="0.99999999"
       empcolor="#0099e5"
       empopacity="0.30196078"
       color="#0099e5"
       opacity="0.14901961"
       empspacing="5"
       enabled="true"
       visible="false" /></sodipodi:namedview><defs
     id="defs1" /><g
     inkscape:label="Layer 1"
     inkscape:groupmode="layer"
     id="layer1"
     style="display:inline"><path
       style="fill:#71c837;stroke:#c83737;stroke-width:0.15"
       d="M 65.78461,60.698081 24.21539,36.69808"
       id="path6" /><path
       style="fill:#71c837;stroke:#c83737;stroke-width:0.15"
       d="M 24.21539,60.69808 65.78461,36.698081"
       id="path7" /><path
       style="fill:#71c837;stroke:#c83737;stroke-width:0.15"
       d="m 45.000001,72.698081 v -48"
       id="path8" /><circle
       style="fill:none;stroke:#c83737;stroke-width:0.15"
       id="path9"
       cx="-48.698078"
       cy="45"
       r="14.60384"
       transform="rotate(-90)" /><path
       sodipodi:type="star"
       style="fill:none;stroke:#808000;stroke-width:0.15"
       id="path10"
       inkscape:flatsided="true"
       sodipodi:sides="6"
       sodipodi:cx="-3"
       sodipodi:cy="41"
       sodipodi:r1="14.60384"
       sodipodi:r2="12.647296"
       sodipodi:arg1="0"
       sodipodi:arg2="0.52359878"
       inkscape:rounded="0"
       inkscape:randomized="0"
       d="M 11.60384,41 4.3019199,53.647296 H -10.30192 L -17.60384,41 l 7.30192,-12.647296 14.6038399,0 z"
       transform="rotate(-90,24.84904,20.84904)" /><path
       style="fill:#99ff55;stroke:#808000;stroke-width:0.15"
       d="M 45,48.69808 32.352701,41.396161 45,34.09424 57.647296,41.396161 Z"
       id="path11" /><path
       style="fill:#99ff55;stroke:#808000;stroke-width:0.15"
       d="M 57.647298,56.000001 45.000001,63.301922 V 48.69808 l 12.647297,-7.301919 z"
       id="path12" /><path
       style="fill:#99ff55;stroke:#808000;stroke-width:0.15"
       d="m 45,48.69808 10e-7,14.60384 L 32.352702,56 l 10e-7,-14.60384 z"
       id="path13" /><path
       style="fill:#3689e6;stroke:none;stroke-width:0;stroke-dasharray:none"
       d="m 133.64848,32.235122 -15,26 h 30 z"
       id="path30" /><path
       id="path26-5"
       style="display:inline;fill:#ed5353;stroke:#ffff00;stroke-width:0.0169902"
       d="M 71.898488,84.274176 H 171.89849 V 110.27418 H 71.898488 Z" /><path
       style="display:inline;fill:#cc3b02;stroke:none;stroke-width:0.15"
       d="m 178.64849,58.235122 15,-26 h 29.99999 l -15,26 z"
       id="path21-0" /><path
       style="display:inline;fill:#28bca3;stroke:none;stroke-width:0.356304"
       d="m 251.07142,-11.25538 -30,-17.333 30,-17.333 30,17.333 z"
       id="path15-3" /><path
       style="display:inline;fill:#a56de2;stroke:none;stroke-width:0.15"
       d="m 208.64848,58.235122 30,-17.35 30,17.35 -15,25.999998 h -30 z"
       id="path49"
       sodipodi:nodetypes="cccccc" /><path
       id="square1-6"
       style="display:inline;fill:#d48e15;stroke:#ffff00;stroke-width:0.00866544"
       d="m 88.648486,58.235122 h 26.000004 v 26 H 88.648486 Z" /><path
       style="display:inline;fill:#a56de2;stroke:none;stroke-width:0.15"
       d="m 208.64848,58.235122 30,-17.35 30,17.35 -15,25.999998 h -30 z"
       id="path62"
       sodipodi:nodetypes="cccccc" /><path
       style="display:inline;fill:#a56de2;stroke:none;stroke-width:0.15"
       d="m 154.27583,191.5358 30,-17.35 30,17.35 -15,26 h -30 z"
       id="path63"
       sodipodi:nodetypes="cccccc" /><path
       id="path1-8"
       style="display:inline;fill:#7239b3;stroke-width:0.15"
       d="m 193.64847,84.235133 -15,25.999997 h -30 l -15,-25.999997 15,-26.000011 h 30 z" /><path
       style="display:inline;fill:#ffa154;stroke:none;stroke-width:0.15"
       d="m 214.28414,191.54042 30.02554,17.30576 -0.0255,34.65576 -30.01666,0.01 -15,-25.98076 z"
       id="path66"
       sodipodi:nodetypes="cccccc" /><path
       style="display:inline;fill:#c6262e;stroke:none;stroke-width:0.15"
       d="m 199.27587,269.49733 -30.02554,-17.30576 0.0255,-34.65577 30.01666,-0.01 15,25.98077 z"
       id="path68"
       sodipodi:nodetypes="cccccc"
       inkscape:transform-center-x="-34.786799"
       inkscape:transform-center-y="-0.29232604" /><path
       style="display:inline;fill:#9bdb4d;stroke:none;stroke-width:0.15"
       d="m 244.30119,243.52097 0.0255,34.65576 -30.02552,17.30579 -15.01699,-25.99019 15,-25.98076 z"
       id="path67"
       sodipodi:nodetypes="cccccc" /><path
       style="display:inline;fill:#a56de2;stroke:none;stroke-width:0.15"
       d="m 214.28433,295.49241 -30,17.35 -30,-17.35 15,-26 h 30 z"
       id="path69"
       sodipodi:nodetypes="cccccc" /><path
       style="display:inline;fill:#ffa154;stroke:none;stroke-width:0.15"
       d="m 154.26771,295.48318 -30.02554,-17.30576 0.0255,-34.65577 30.01666,-0.01 15,25.98076 z"
       id="path70"
       sodipodi:nodetypes="cccccc" /><path
       style="display:inline;fill:#c6262e;stroke:none;stroke-width:0.15"
       d="m 192.41241,365.24134 30.02554,17.30576 -0.0255,34.65577 -30.01666,0.01 -15,-25.98076 z"
       id="path71"
       sodipodi:nodetypes="cccccc"
       inkscape:transform-center-x="34.7868"
       inkscape:transform-center-y="0.29232849" /><path
       style="display:inline;fill:#9bdb4d;stroke:none;stroke-width:0.15"
       d="m 124.26732,243.50225 -0.0255,-34.65576 30.02552,-17.30579 15.01699,25.99019 -15,25.98076 z"
       id="path72"
       sodipodi:nodetypes="cccccc" /><path
       id="path2"
       style="display:inline;fill:#7239b3;stroke-width:0.15"
       d="m 30,127.64334 -15,25.99999 h -30 l -15,-25.99999 15,-26.00001 h 30 z" /><path
       style="fill:#ff8080;fill-opacity:0.776128;stroke-width:0.15"
       d="m -30,127.64334 15,-26.00001 H 0 v 26 l -22.5,13 -7.5,-12.99999"
       id="path3" /><path
       style="fill:none;fill-opacity:0.776128;stroke-width:0.15;stroke:#f9f9f9"
       d="m -15,153.64333 30,-52"
       id="path4" /><path
       style="fill:#ff8080;fill-opacity:0.776128;stroke-width:0.15"
       d="m 15.008291,101.64813 15.016669,25.99039 -7.5,12.99038 -22.51666,-13 L 0,101.64333 l 15.008321,0.005"
       id="path5" /><path
       style="fill:#ff8080;fill-opacity:0.776128;stroke-width:0.15"
       d="m 238.64849,110.2155 -30.01667,0.01 -7.5,-12.990382 22.51666,-12.999998 22.50831,12.985598 -7.50849,12.995102"
       id="path14" /></g><g
     inkscape:groupmode="layer"
     id="layer4"
     inkscape:label="Shapes"
     style="display:inline"><path
       id="path1"
       style="display:inline;fill:#7239b3;stroke-width:0.15"
       d="M 30,0 15,26 H -15 L -30,0 -15,-26 h 30 z" /><path
       style="display:inline;fill:#a56de2;stroke:none;stroke-width:0.15"
       d="M -30,0 0,-17.35 30,0 15,26 h -30 z"
       id="path8-3"
       sodipodi:nodetypes="cccccc" /><path
       id="path27"
       style="fill:#d35f5f;stroke:#ffff00;stroke-width:0.00866544"
       d="M -13,-13 H 13 V 13 H -13 Z" /><path
       id="path26"
       style="fill:#ed5353;stroke:#ffff00;stroke-width:0.0169902"
       d="M -50,-13 H 50 V 13 H -50 Z" /><path
       style="fill:#cc3b02;stroke:none;stroke-width:0.15"
       d="m -22.5,13 15,-26 h 30 l -15,26 z"
       id="path21" /><path
       style="display:inline;fill:#ff8080;fill-opacity:0.776128;stroke-width:0.15"
       d="m 15,13.334 h -30 l -7.5,-13 22.5,-13 22.5,13 z"
       id="path16" /><path
       style="fill:#28bca3;stroke:none;stroke-width:0.356304"
       d="M 0,17.333 -30,0 0,-17.333 30,0 Z"
       id="path15" /><path
       id="path38-35"
       style="display:inline;fill:#ff80e5;stroke:#ffff00;stroke-width:0.00999859"
       d="M -15 -15 H 15 V 15 H -15 Z" /><path
       id="square1"
       style="fill:#d48e15;stroke:#ffff00;stroke-width:0.00866544"
       d="M -13,-13 H 13 V 13 H -13 Z" /><path
       style="fill:#3689e6;stroke:none;stroke-width:0;stroke-dasharray:none"
       d="M 0,-13 -15,13 H 15 Z"
       id="triangle1" /><path
       style="fill:#000000;stroke:none;stroke-width:0;stroke-dasharray:none"
       d="M 0,-3 -2,0 0,3 2,0 Z"
       id="path24"
       sodipodi:nodetypes="ccccc" /><path
       id="path19"
       style="display:inline;fill:#ffaaaa;stroke:#ffff00;stroke-width:0.00999859"
       d="m 112.98144,-128.63695 25.98076,15 -15,25.980769 -25.980768,-14.999999 z" /><path
       id="path28"
       style="display:inline;fill:#ffaaee;stroke:#ffff00;stroke-width:0.00999859"
       d="m 67.939781,-102.63199 10e-7,30.000001 -30.000003,1e-5 4e-6,-30.000001 z" /><path
       style="display:inline;fill:#3689e6;stroke:none;stroke-width:0;stroke-dasharray:none"
       d="m 123.97192,-87.656346 -26.000206,-14.999674 2e-6,30.000016 z"
       id="path31" /><path
       style="display:inline;fill:#3689e6;stroke:none;stroke-width:0;stroke-dasharray:none"
       d="m 138.96203,-113.64667 -14.99967,26.000204 30.00001,-2e-6 z"
       id="path32" /><path
       id="path34"
       style="display:inline;fill:#ff80e5;stroke:#ffff00;stroke-width:0.00999859"
       d="m 67.956441,-102.64179 h 30.000002 v 30.000013 H 67.956441 Z" /><path
       id="path38"
       style="display:inline;fill:#ff80e5;stroke:#ffff00;stroke-width:0.00999859"
       d="m 37.939779,-72.631984 h 30.000002 v 30.000009 H 37.939779 Z" /><path
       style="display:inline;fill:#3689e6;stroke:none;stroke-width:0;stroke-dasharray:none"
       d="m 123.95665,-57.642108 -26.000208,-14.99967 2e-6,30.000012 z"
       id="path39" /><path
       style="display:inline;fill:#2c5aa0;stroke:none;stroke-width:0;stroke-dasharray:none"
       d="m 123.95193,-57.63361 -0.01,-30.016673 -25.98077,15.000008 z"
       id="path40" /><path
       id="path44"
       style="display:inline;fill:#ffaaee;stroke:#ffff00;stroke-width:0.00999859"
       d="m 97.956441,-72.641778 10e-7,29.999998 -30.000003,10e-6 4e-6,-30.000006 z" /><path
       id="path28-0"
       style="display:inline;fill:#ffaaee;stroke:#ffff00;stroke-width:0.00999859"
       d="m 82.948114,-188.62717 10e-7,30 -30.000003,1e-5 4e-6,-30.00001 z" /><path
       id="path34-9"
       style="display:inline;fill:#ff80e5;stroke:#ffff00;stroke-width:0.00999859"
       d="m 82.964774,-188.63697 h 30.000006 v 30.00001 H 82.964774 Z" /><path
       id="path38-3"
       style="display:inline;fill:#ff80e5;stroke:#ffff00;stroke-width:0.00999859"
       d="m 52.948112,-158.62717 h 30.000002 v 30.00001 H 52.948112 Z" /><path
       id="path44-0"
       style="display:inline;fill:#ffaaee;stroke:#ffff00;stroke-width:0.00999859"
       d="m 112.96478,-158.63696 v 30 l -30.000008,10e-6 4e-6,-30.00001 z" /><path
       id="square1-5-7-2"
       style="display:inline;fill:#ff80e5;stroke:#ffff00;stroke-width:0.00999859"
       d="m 123.95403,-87.631848 h 30.00001 v 30.00001 h -30.00001 z" /><path
       id="path28-0-2"
       style="display:inline;fill:#ffaaee;stroke:#ffff00;stroke-width:0.00999859"
       d="m 183.96236,-87.646468 1e-5,30 -30.00001,10e-6 1e-5,-30.00001 z" /><path
       id="path38-3-9"
       style="display:inline;fill:#ff80e5;stroke:#ffff00;stroke-width:0.00999859"
       d="m 153.96236,-57.646468 h 30 v 30.000007 h -30 z" /><path
       id="path43-6-7"
       style="display:inline;fill:#ffaaee;stroke:#ffff00;stroke-width:0.00999859"
       d="m 153.95403,-57.631838 v 29.999987 l -30,2e-5 1e-5,-30.000007 z" /><path
       style="display:inline;fill:#2c5aa0;stroke:none;stroke-width:0;stroke-dasharray:none"
       d="m 123.95403,-27.631831 -0.01,-30.016673 -25.98077,15.000008 z"
       id="path45" /><path
       style="display:inline;fill:#3689e6;stroke:none;stroke-width:0;stroke-dasharray:none"
       d="m 97.964302,-102.61409 14.999678,-26.0002 H 82.963952 Z"
       id="path64" /><path
       style="display:inline;fill:#3689e6;stroke:none;stroke-width:0;stroke-dasharray:none"
       d="m 67.95006,-102.62936 14.999672,-26.00021 -30.000014,1e-5 z"
       id="path65" /><path
       style="display:inline;fill:#2c5aa0;stroke:none;stroke-width:0;stroke-dasharray:none"
       d="m 67.941562,-102.63408 30.01667,-0.01 -15.00001,-25.98077 z"
       id="path73" /><path
       style="display:inline;fill:#2c5aa0;stroke:none;stroke-width:0;stroke-dasharray:none"
       d="m 37.939783,-102.63198 30.016673,-0.01 -15.000008,-25.98077 z"
       id="path74" /><path
       style="display:inline;fill:#3689e6;stroke:none;stroke-width:0;stroke-dasharray:none"
       d="m 138.9851,-173.65313 -26.0002,-14.99967 v 30.00001 z"
       id="path75" /><path
       style="display:inline;fill:#3689e6;stroke:none;stroke-width:0;stroke-dasharray:none"
       d="m 138.96982,-143.63889 -26.00021,-14.99967 1e-5,30.00001 z"
       id="path76" /><path
       style="display:inline;fill:#2c5aa0;stroke:none;stroke-width:0;stroke-dasharray:none"
       d="m 138.9651,-143.6304 -0.01,-30.01667 -25.98077,15.00001 z"
       id="path77" /><path
       id="path78"
       style="display:inline;fill:#ff80e5;stroke:#ffff00;stroke-width:0.00999859"
       d="m 138.9672,-173.62863 h 30.00001 v 30.00001 H 138.9672 Z" /><path
       id="path79"
       style="display:inline;fill:#ffaaee;stroke:#ffff00;stroke-width:0.00999859"
       d="m 198.97553,-173.64325 1e-5,30 -30.00001,1e-5 1e-5,-30.00001 z" /><path
       id="path80"
       style="display:inline;fill:#ff80e5;stroke:#ffff00;stroke-width:0.00999859"
       d="m 168.97553,-143.64325 h 30 v 30 h -30 z" /><path
       id="path81"
       style="display:inline;fill:#ffaaee;stroke:#ffff00;stroke-width:0.00999859"
       d="m 168.9672,-143.62862 v 29.99998 l -30,2e-5 1e-5,-30 z" /><path
       style="display:inline;fill:#2c5aa0;stroke:none;stroke-width:0;stroke-dasharray:none"
       d="m 138.9672,-113.62862 -0.01,-30.01667 -25.98076,15.00001 z"
       id="path82" /><path
       style="fill:#aaccff;stroke:none;stroke-width:0;stroke-dasharray:none"
       d="M -85.843002,73.729967 -100.843,99.729968 h 29.999999 z"
       id="path17" /><path
       style="fill:#aaccff;fill-opacity:0.776128;stroke:#0066ff;stroke-width:0.15"
       d="m -100.843,99.729968 22.499998,-13"
       id="path18" /><path
       style="fill:#aaccff;fill-opacity:0.776128;stroke:#0066ff;stroke-width:0.15"
       d="m -70.843001,99.729968 -22.500001,-13"
       id="path20" /><circle
       style="fill:none;fill-opacity:0.776128;stroke:#0066ff;stroke-width:0.209078"
       id="path22"
       cx="-85.880524"
       cy="91.062965"
       r="24.89546" /></g><g
     inkscape:groupmode="layer"
     id="layer5"
     inkscape:label="Grid"
     sodipodi:insensitive="true"
     style="display:inline"><path
       style="display:inline;fill:#a56de2;stroke:#667885;stroke-width:0.15"
       d="M 60.064952,107.74325 117.23202,8.7269931"
       id="path23" /><path
       style="display:inline;fill:#a56de2;stroke:#667885;stroke-width:0.15"
       d="M 90.064952,8.7269931 147.232,107.74325"
       id="path36" /><path
       style="display:inline;fill:#a56de2;stroke:#667885;stroke-width:0.228109"
       d="m 71.898488,32.235122 265.206352,1.1e-5"
       id="path41" /><path
       style="display:inline;fill:#a56de2;stroke:#667885;stroke-width:0.228109"
       d="m 71.898488,6.274176 265.206352,1.1e-5"
       id="path42" /><path
       style="display:inline;fill:#a56de2;stroke:#667885;stroke-width:0.228109"
       d="m 71.898488,58.274176 265.206352,1.1e-5"
       id="path46" /><path
       style="display:inline;fill:#a56de2;stroke:#667885;stroke-width:0.228109"
       d="m 71.898488,84.274176 265.206352,1.1e-5"
       id="path47" /><path
       style="display:inline;fill:#a56de2;stroke:#667885;stroke-width:0.228109"
       d="m 71.898488,110.27418 265.206352,1e-5"
       id="path48" /><path
       style="display:inline;fill:#a56de2;stroke:#667885;stroke-width:0.15"
       d="M 90.064952,107.74325 147.23202,8.7269931"
       id="path50" /><path
       style="display:inline;fill:#a56de2;stroke:#667885;stroke-width:0.15"
       d="M 120.06495,107.74325 177.23202,8.7269931"
       id="path51" /><path
       style="display:inline;fill:#a56de2;stroke:#667885;stroke-width:0.15"
       d="M 150.06495,107.74325 207.23202,8.7269931"
       id="path52" /><path
       style="display:inline;fill:#a56de2;stroke:#667885;stroke-width:0.15"
       d="M 180.06495,107.74325 237.23202,8.7269931"
       id="path53" /><path
       style="display:inline;fill:#a56de2;stroke:#667885;stroke-width:0.15"
       d="M 210.06495,107.74325 267.23202,8.7269931"
       id="path54" /><path
       style="display:inline;fill:#a56de2;stroke:#667885;stroke-width:0.15"
       d="M 240.06495,107.74325 297.23202,8.7269931"
       id="path55" /><path
       style="display:inline;fill:#a56de2;stroke:#667885;stroke-width:0.15"
       d="M 120.06495,8.7269931 177.232,107.74325"
       id="path56" /><path
       style="display:inline;fill:#a56de2;stroke:#667885;stroke-width:0.15"
       d="M 150.06495,8.7269931 207.232,107.74325"
       id="path57" /><path
       style="display:inline;fill:#a56de2;stroke:#667885;stroke-width:0.15"
       d="M 180.06495,8.7269931 237.232,107.74325"
       id="path58" /><path
       style="display:inline;fill:#a56de2;stroke:#667885;stroke-width:0.15"
       d="M 210.06495,8.7269931 267.232,107.74325"
       id="path59" /><path
       style="display:inline;fill:#a56de2;stroke:#667885;stroke-width:0.15"
       d="M 240.06495,8.7269931 297.232,107.74325"
       id="path60" /><path
       style="display:inline;fill:#a56de2;stroke:#667885;stroke-width:0.15"
       d="M 270.06495,8.7269931 327.232,107.74325"
       id="path61" /></g></svg>
